<svg id="Layer_1" enable-background="new 0 0 128 128" height="512" viewBox="0 0 128 128" width="512" xmlns="http://www.w3.org/2000/svg"><g><g><path d="m119.242 35.5c-1.309-2.267-3.159-4.132-5.456-5.604.102-.45.16-.916.16-1.396 0-3.492-2.841-6.333-6.333-6.333-2.615 0-4.864 1.593-5.829 3.859-3.595-.404-7.559-.361-11.777.108-5.532-12.629-13.666-20.634-22.727-20.634s-17.195 8.005-22.728 20.635c-13.704-1.524-24.704 1.518-29.234 9.365-1.93 3.344-2.504 7.273-1.913 11.536-2.229.981-3.791 3.209-3.791 5.797 0 3.492 2.841 6.334 6.333 6.334.574 0 1.128-.084 1.657-.228 1.184 2.168 2.605 4.363 4.222 6.561-8.172 11.106-11.038 22.153-6.507 30 3.78 6.547 12.054 9.756 22.651 9.756 2.106 0 4.31-.139 6.582-.392.941 2.149 1.958 4.163 3.042 6.027-1.177 1.151-1.911 2.754-1.911 4.526 0 3.492 2.841 6.333 6.334 6.333 1.279 0 2.469-.384 3.465-1.038 3.626 3.08 7.614 4.788 11.799 4.788 9.062 0 17.196-8.006 22.728-20.636 2.272.253 4.477.392 6.583.392 10.595 0 18.872-3.21 22.651-9.756 4.53-7.847 1.664-18.894-6.507-30 8.17-11.106 11.036-22.153 6.506-30zm-17.93-7.631c-.021.208-.032.418-.032.631 0 3.492 2.841 6.333 6.334 6.333 2.3 0 4.312-1.237 5.421-3.076 1.863 1.281 3.384 2.853 4.475 4.743 4.106 7.113 1.498 17.165-5.968 27.423-2.959-3.789-6.523-7.567-10.616-11.211-1.382-3.625-3.331-6.972-5.742-9.929-1.11-5.377-2.601-10.362-4.406-14.827 3.774-.399 7.314-.429 10.534-.087zm-24.427 2.943c4.133-1.222 8.137-2.095 11.931-2.613 1.452 3.553 2.701 7.467 3.71 11.669-4.301-4.238-9.661-7.398-15.641-9.056zm-34.852 9.056c1.009-4.201 2.257-8.115 3.709-11.667 3.793.517 7.795 1.39 11.927 2.612-5.977 1.658-11.335 4.819-15.636 9.055zm-10.753 25.632c0 3.111.397 6.131 1.143 9.013-3.119-2.964-5.873-5.991-8.215-9.013 2.342-3.022 5.095-6.049 8.215-9.013-.746 2.882-1.143 5.902-1.143 9.013zm26.396 34.689c-4.134 1.222-8.138 2.096-11.932 2.613-1.452-3.553-2.701-7.467-3.711-11.67 4.302 4.238 9.662 7.399 15.643 9.057zm34.85-9.057c-1.009 4.202-2.258 8.117-3.71 11.67-3.794-.518-7.798-1.391-11.932-2.613 5.981-1.658 11.341-4.819 15.642-9.057zm10.754-25.632c0-3.111-.397-6.131-1.143-9.013 3.119 2.964 5.873 5.991 8.215 9.013-2.341 3.022-5.095 6.049-8.215 9.013.745-2.882 1.143-5.902 1.143-9.013zm-36-58c8.213 0 15.614 7.285 20.765 18.879-4.759.667-9.81 1.865-15.01 3.587-1.875-.303-3.796-.466-5.755-.466s-3.881.163-5.756.466c-5.199-1.721-10.25-2.918-15.009-3.586 5.151-11.595 12.552-18.88 20.765-18.88zm-47.941 50.672c1.765-1.126 2.941-3.096 2.941-5.339 0-3.492-2.841-6.333-6.333-6.333-.232 0-.461.014-.687.039-.444-3.714.108-7.124 1.79-10.039 3.441-5.961 11.027-8.871 20.82-8.871 1.889 0 3.869.122 5.909.337-1.804 4.462-3.293 9.444-4.402 14.818-2.412 2.957-4.36 6.304-5.742 9.929-4.093 3.644-7.657 7.421-10.616 11.21-1.406-1.931-2.631-3.853-3.68-5.751zm-2.289 36.328c-4.106-7.113-1.498-17.164 5.968-27.423 2.959 3.789 6.523 7.566 10.616 11.21 1.382 3.625 3.331 6.972 5.742 9.929 1.11 5.377 2.601 10.363 4.406 14.828-12.616 1.336-22.625-1.431-26.732-8.544zm50.23 29c-3.657 0-7.149-1.459-10.358-4.085.891-1.091 1.427-2.483 1.427-3.998 0-3.492-2.841-6.334-6.334-6.334-1.04 0-2.02.257-2.888.703-.924-1.609-1.799-3.332-2.615-5.17 4.76-.668 9.811-1.86 15.012-3.582 1.875.302 3.796.466 5.755.466s3.879-.163 5.754-.465c5.202 1.722 10.252 2.915 15.013 3.582-5.151 11.596-12.553 18.883-20.766 18.883zm50.229-29c-4.106 7.113-14.116 9.88-26.733 8.544 1.805-4.465 3.296-9.45 4.406-14.827 2.412-2.957 4.36-6.304 5.742-9.929 4.093-3.644 7.657-7.421 10.616-11.21 7.467 10.258 10.076 20.309 5.969 27.422z" fill="#e6e7e8"/></g><g><g><circle cx="63.28" cy="61.5" fill="#0089ef" r="35"/></g><g><path d="m63.28 93.5c-18.827 0-34.175-14.867-34.962-33.5-.021.498-.038.997-.038 1.5 0 19.33 15.67 35 35 35s35-15.67 35-35c0-.503-.017-1.002-.038-1.5-.787 18.633-16.135 33.5-34.962 33.5z" fill="#fff"/></g><path d="m77.944 63.384c.348-2.653 12.653-13.904 1.807-22.247-7.971-6.132-15.648 1.962-16.472 2.967-.824-1.005-8.5-9.099-16.472-2.967-10.845 8.343 1.46 19.594 1.808 22.247s-1.078 5.701.834 12.236c1.456 4.977 5.452 7.534 7.275 8.471.335.172.706-.153.582-.508-1.288-3.692-5.174-17.041 5.973-17.041s7.261 13.349 5.973 17.041c-.124.356.247.681.582.509 1.823-.937 5.819-3.495 7.275-8.471 1.913-6.536.488-9.584.835-12.237z" fill="#d4fbff"/><path d="m108.946 24.5c0 2.945-2.388 5.333-5.333 5.333-2.946 0-5.333-2.388-5.333-5.333s2.388-5.333 5.333-5.333c2.946 0 5.333 2.388 5.333 5.333z" fill="#fa759e"/><path d="m17.28 48.833c0 2.946-2.388 5.333-5.333 5.333-2.946 0-5.333-2.388-5.333-5.333 0-2.946 2.388-5.333 5.333-5.333s5.333 2.388 5.333 5.333z" fill="#6dc9f7"/><g><path d="m53.349 111.417c0 2.945-2.388 5.333-5.333 5.333s-5.333-2.388-5.333-5.333c0-2.946 2.388-5.333 5.333-5.333s5.333 2.387 5.333 5.333z" fill="#ffd7e5"/><g fill="#3a2c60"><path d="m45.907 15.113c.324 0 .641-.156.833-.446 1.472-2.214 3.052-4.141 4.696-5.729.397-.384.408-1.018.024-1.414-.383-.397-1.016-.408-1.414-.025-1.748 1.688-3.42 3.728-4.972 6.061-.306.46-.181 1.081.279 1.387.172.113.364.166.554.166z"/><path d="m115.241 31.5c-1.303-2.256-3.143-4.135-5.448-5.631.098-.441.153-.898.153-1.369 0-3.492-2.841-6.333-6.333-6.333-2.594 0-4.826 1.569-5.804 3.807-2.701-.308-5.619-.388-8.771-.185-1.005.065-2.026.164-3.054.28-5.532-12.595-13.658-20.569-22.704-20.569-3.35 0-6.633 1.066-9.759 3.168-.458.309-.58.93-.271 1.388.308.458.929.581 1.388.272 2.789-1.877 5.697-2.828 8.642-2.828 8.197 0 15.584 7.26 20.732 18.819-4.835.688-9.891 1.92-15.03 3.637-1.859-.297-3.762-.456-5.702-.456-1.956 0-3.874.162-5.746.464-5.19-1.719-10.231-2.911-14.983-3.58.662-1.487 1.364-2.911 2.105-4.262.266-.484.089-1.093-.396-1.358-.484-.265-1.093-.089-1.357.396-.858 1.564-1.662 3.226-2.416 4.964-13.675-1.508-24.646 1.541-29.169 9.376-1.93 3.343-2.498 7.272-1.906 11.533-2.233.98-3.799 3.209-3.799 5.8 0 3.492 2.841 6.334 6.333 6.334.578 0 1.135-.084 1.668-.23 1.184 2.168 2.592 4.363 4.208 6.56-8.174 11.107-11.035 22.155-6.504 30.003 3.78 6.547 12.054 9.756 22.651 9.756 2.109 0 4.318-.141 6.594-.396.941 2.147 1.956 4.161 3.039 6.024-1.182 1.151-1.92 2.757-1.92 4.534 0 3.492 2.841 6.333 6.333 6.333 1.285 0 2.48-.387 3.48-1.047 3.623 3.075 7.603 4.797 11.784 4.797 9.047 0 17.172-7.974 22.704-20.569 1.029.116 2.049.215 3.054.28 1.25.081 2.466.121 3.648.121 10.922 0 18.861-3.434 22.556-9.832 4.53-7.847 1.67-18.894-6.502-30 8.172-11.107 11.033-22.154 6.502-30.001zm-11.628-11.333c2.39 0 4.333 1.943 4.333 4.333s-1.944 4.333-4.333 4.333-4.333-1.943-4.333-4.333 1.944-4.333 4.333-4.333zm-14.446 3.618c2.93-.188 5.638-.125 8.142.141-.017.189-.029.38-.029.574 0 3.492 2.841 6.333 6.333 6.333 2.288 0 4.291-1.224 5.404-3.047 1.883 1.288 3.415 2.847 4.492 4.714 4.106 7.112 1.495 17.161-5.971 27.417-2.96-3.79-6.522-7.57-10.617-11.215-1.381-3.617-3.325-6.957-5.731-9.909-1.107-5.369-2.598-10.344-4.399-14.804.799-.083 1.592-.153 2.376-.204zm17.177 37.715c-2.341 3.02-5.089 6.045-8.206 9.007.745-2.88 1.141-5.898 1.141-9.007s-.397-6.128-1.141-9.007c3.117 2.962 5.865 5.987 8.206 9.007zm-21.525-37.278c1.447 3.546 2.695 7.449 3.702 11.641-4.296-4.23-9.646-7.387-15.615-9.046 4.073-1.198 8.069-2.077 11.913-2.595zm12.461 37.278c0 18.748-15.252 34-34 34s-34-15.252-34-34 15.252-34 34-34 34 15.252 34 34zm-8.758 25.636c-1.007 4.192-2.255 8.095-3.702 11.641-3.844-.518-7.841-1.397-11.912-2.595 5.968-1.659 11.318-4.815 15.614-9.046zm-34.851 9.052c-4.126 1.22-8.123 2.089-11.912 2.607-1.45-3.545-2.695-7.449-3.704-11.642 4.297 4.226 9.647 7.379 15.616 9.035zm-25.257-25.707c-3.11-2.958-5.855-5.976-8.191-8.992 2.339-3.017 5.085-6.039 8.198-8.998-.745 2.88-1.142 5.899-1.142 9.008.001 3.101.395 6.11 1.135 8.982zm25.233-43.662c-5.951 1.655-11.286 4.799-15.575 9.011 1.001-4.144 2.242-8.049 3.707-11.624 3.775.52 7.76 1.399 11.868 2.613zm-46.034 22.014c0-2.39 1.944-4.333 4.333-4.333s4.333 1.943 4.333 4.333-1.944 4.334-4.333 4.334-4.333-1.944-4.333-4.334zm7.74 5.331c1.757-1.127 2.927-3.093 2.927-5.331 0-3.492-2.841-6.333-6.333-6.333-.226 0-.449.013-.67.036-.445-3.712.092-7.123 1.774-10.036 3.441-5.961 11.027-8.871 20.82-8.871 1.875 0 3.839.121 5.862.334-1.802 4.507-3.264 9.499-4.349 14.813-2.412 2.955-4.36 6.301-5.744 9.924-4.093 3.643-7.654 7.421-10.613 11.209-1.405-1.928-2.626-3.848-3.674-5.745zm-2.303 36.336c-4.106-7.112-1.495-17.162 5.972-27.418 2.959 3.79 6.521 7.57 10.615 11.214 1.385 3.63 3.338 6.981 5.756 9.941 1.109 5.363 2.587 10.346 4.389 14.801-12.616 1.339-22.626-1.425-26.732-8.538zm30.632 20.917c0-2.39 1.944-4.334 4.333-4.334s4.333 1.944 4.333 4.334-1.944 4.333-4.333 4.333-4.333-1.943-4.333-4.333zm19.598 8.083c-3.657 0-7.148-1.462-10.355-4.089.889-1.09 1.424-2.48 1.424-3.994 0-3.492-2.841-6.334-6.333-6.334-1.034 0-2.008.254-2.87.695-.922-1.607-1.793-3.332-2.609-5.166 4.739-.669 9.77-1.874 14.946-3.586 1.889.307 3.824.473 5.798.473 1.94 0 3.844-.159 5.702-.456 5.139 1.718 10.195 2.949 15.03 3.637-5.149 11.56-12.536 18.82-20.733 18.82zm50.229-29c-3.693 6.397-12.344 9.487-24.342 8.715-.784-.051-1.577-.121-2.376-.205 1.801-4.46 3.292-9.435 4.399-14.804 2.406-2.952 4.35-6.292 5.731-9.909 4.095-3.644 7.657-7.424 10.617-11.215 7.466 10.257 10.077 20.306 5.971 27.418z"/><path d="m47.624 63.514c.099.755.029 1.611-.052 2.602-.18 2.191-.425 5.193.918 9.785 1.579 5.397 5.965 8.147 7.778 9.08.206.105.428.157.648.157.333 0 .663-.118.927-.349.44-.383.6-.985.408-1.536-.77-2.206-3.073-9.694-.404-13.451 1.08-1.521 2.857-2.261 5.433-2.261 2.575 0 4.353.739 5.433 2.261 2.668 3.756.366 11.245-.404 13.451-.192.552-.032 1.154.408 1.536.438.383 1.057.457 1.576.191 1.812-.932 6.197-3.68 7.777-9.08 1.343-4.592 1.098-7.593.918-9.784-.081-.991-.151-1.847-.052-2.603.049-.372.863-1.597 1.518-2.58 2.931-4.405 9.029-13.573-.092-20.59-6.996-5.38-14.081-.771-17.082 2.271-3.001-3.043-10.087-7.652-17.082-2.271-9.121 7.017-3.022 16.185-.092 20.59.654.984 1.469 2.209 1.518 2.581zm-.207-21.584c7.629-5.871 15.017 2.72 15.089 2.808.38.463 1.167.463 1.547 0 .073-.088 7.462-8.676 15.089-2.808 7.052 5.424 3.692 11.814-.354 17.896-1.04 1.563-1.727 2.596-1.836 3.429-.126.967-.048 1.921.042 3.025.176 2.148.395 4.823-.845 9.06-1.067 3.648-3.648 5.908-5.477 7.105 1.1-3.646 2.389-9.974-.33-13.801-1.462-2.059-3.839-3.103-7.063-3.103-3.225 0-5.602 1.044-7.064 3.103-2.719 3.828-1.43 10.153-.33 13.8-1.829-1.199-4.41-3.459-5.476-7.104-1.24-4.236-1.021-6.911-.845-9.061.09-1.104.168-2.059.042-3.024-.109-.833-.796-1.865-1.836-3.429-4.044-6.082-7.404-12.472-.353-17.896z"/></g></g></g></g></svg>